<svg xmlns="http://www.w3.org/2000/svg" width="24" height="24" fill="none" aria-label="Watershed logo" viewBox="0 0 24 24"><clipPath id="a"><path d="m0 0h24v24h-24z"/></clipPath><g clip-path="url(#a)"><path fill="#f30" d="m12 0c-6.6264 0-12 5.3736-12 12h12c0-10.5 0-12 0-12z"/><path fill="#fc0" d="m12 12.0002h12c0-6.62645-5.3736-12.00004741-12-12.00004741z"/><path fill="#7ad1da" d="m12 12.0003h12c0 6.6264-5.3736 12-12 12 0 0 0-1.5 0-12z"/><path fill="#03c" d="m12 12.0003v12c-6.6264 0-12-5.3736-12-12z"/><path fill="#33b5cc" d="m12 24.0003c4.0008-1.5 6-6.7488 6-12h-6z"/><path fill="#f96" d="m12 .00015259v12.00004741h6c0-5.25125-1.9992-10.50005-6-12.00004741z"/><path fill="#f63" d="m12 .00015259c-4.0008 1.49999741-6 6.74879741-6 12.00004741h6z"/><path fill="#36f" d="m6 12.0003c0 5.2512 1.9992 10.5 6 12v-12z"/></g></svg>